<svg width="32" height="32" viewBox="0 0 32 32" fill="none" xmlns="http://www.w3.org/2000/svg">
<path d="M8.60046 12.3067H23.4005C24.0547 12.3067 24.6821 12.5665 25.1446 13.0291C25.6072 13.4917 25.8671 14.1191 25.8671 14.7733V23.4027C25.8664 24.7106 25.3463 25.9647 24.4212 26.8893C23.4961 27.8139 22.2417 28.3333 20.9338 28.3333H11.0671C9.75918 28.3333 8.50477 27.8139 7.57967 26.8893C6.65457 25.9647 6.1345 24.7106 6.13379 23.4027V14.7733C6.13379 14.1191 6.39367 13.4917 6.85626 13.0291C7.31885 12.5665 7.94625 12.3067 8.60046 12.3067Z" stroke="white" stroke-width="2" stroke-linecap="round" stroke-linejoin="round"/>
<path d="M22.1671 15.404V9.84134C22.1696 8.62081 21.8095 7.42703 21.1325 6.41148C20.4555 5.39594 19.492 4.60441 18.3644 4.13733C17.4267 3.74885 16.4077 3.59772 15.3976 3.69732C14.3875 3.79693 13.4177 4.14421 12.5739 4.70837C11.7302 5.27253 11.0387 6.03615 10.5607 6.93152C10.0827 7.82689 9.83301 8.82637 9.83374 9.84134V15.404" stroke="white" stroke-width="2" stroke-linecap="round" stroke-linejoin="round"/>
</svg>
