<svg width="32" height="32" viewBox="0 0 32 32" fill="none" xmlns="http://www.w3.org/2000/svg">
<path d="M8.59948 12.3067H23.3995C24.0537 12.3067 24.6811 12.5665 25.1437 13.0291C25.6063 13.4917 25.8661 14.1191 25.8661 14.7733V23.4027C25.8654 24.7106 25.3454 25.9647 24.4203 26.8893C23.4952 27.8139 22.2408 28.3333 20.9328 28.3333H11.0661C9.75821 28.3333 8.5038 27.8139 7.57869 26.8893C6.65359 25.9647 6.13352 24.7106 6.13281 23.4027V14.7733C6.13281 14.1191 6.39269 13.4917 6.85528 13.0291C7.31787 12.5665 7.94528 12.3067 8.59948 12.3067Z" stroke="black" stroke-width="2" stroke-linecap="round" stroke-linejoin="round"/>
<path d="M22.1654 15.404V9.84134C22.1679 8.62081 21.8078 7.42703 21.1308 6.41148C20.4538 5.39594 19.4903 4.60441 18.3627 4.13733C17.425 3.74885 16.406 3.59772 15.3959 3.69732C14.3858 3.79693 13.4159 4.14421 12.5722 4.70837C11.7285 5.27253 11.037 6.03615 10.559 6.93152C10.081 7.82689 9.8313 8.82637 9.83203 9.84134V15.404" stroke="black" stroke-width="2" stroke-linecap="round" stroke-linejoin="round"/>
</svg>
