<svg width="70" height="70" viewBox="0 0 70 70" fill="none" xmlns="http://www.w3.org/2000/svg">
<rect x="1.5" y="1.5" width="67" height="67" rx="33.5" stroke="#4075AB" stroke-width="3"/>
<path d="M32.3339 32.3334H37.6672M32.3339 32.3334V37.6667M32.3339 32.3334L27.6672 27.6667M37.6672 32.3334V37.6667M37.6672 32.3334L42.3339 27.6667M37.6672 37.6667H32.3339M37.6672 37.6667L42.3339 42.3334M32.3339 37.6667L27.6672 42.3334M32.2805 27C32.1579 26.1421 31.7988 25.3353 31.2435 24.67C30.6882 24.0047 29.9586 23.5071 29.1364 23.2331C28.3142 22.9591 27.432 22.9194 26.5885 23.1185C25.7451 23.3176 24.9738 23.7477 24.361 24.3605C23.7482 24.9733 23.3181 25.7446 23.119 26.5881C22.9199 27.4315 22.9595 28.3137 23.2336 29.1359C23.5076 29.9581 24.0051 30.6877 24.6705 31.243C25.3358 31.7983 26.1426 32.1574 27.0005 32.28M43.0005 32.28C43.8584 32.1574 44.6653 31.7983 45.3306 31.243C45.9959 30.6877 46.4935 29.9581 46.7675 29.1359C47.0415 28.3137 47.0812 27.4315 46.8821 26.5881C46.6829 25.7446 46.2529 24.9733 45.6401 24.3605C45.0273 23.7477 44.2559 23.3176 43.4125 23.1185C42.5691 22.9194 41.6868 22.9591 40.8647 23.2331C40.0425 23.5071 39.3129 24.0047 38.7576 24.67C38.2022 25.3353 37.8431 26.1421 37.7205 27M37.7205 43C37.8431 43.8579 38.2022 44.6648 38.7576 45.3301C39.3129 45.9954 40.0425 46.493 40.8647 46.767C41.6868 47.041 42.5691 47.0807 43.4125 46.8816C44.2559 46.6824 45.0273 46.2524 45.6401 45.6396C46.2529 45.0268 46.6829 44.2555 46.8821 43.412C47.0812 42.5686 47.0415 41.6863 46.7675 40.8642C46.4935 40.042 45.9959 39.3124 45.3306 38.7571C44.6653 38.2017 43.8584 37.8427 43.0005 37.72M27.0005 37.72C26.1426 37.8427 25.3358 38.2017 24.6705 38.7571C24.0051 39.3124 23.5076 40.042 23.2336 40.8642C22.9595 41.6863 22.9199 42.5686 23.119 43.412C23.3181 44.2555 23.7482 45.0268 24.361 45.6396C24.9738 46.2524 25.7451 46.6824 26.5885 46.8816C27.432 47.0807 28.3142 47.041 29.1364 46.767C29.9586 46.493 30.6882 45.9954 31.2435 45.3301C31.7988 44.6648 32.1579 43.8579 32.2805 43" stroke="#4075AB" stroke-width="3" stroke-linecap="round" stroke-linejoin="round"/>
</svg>
