<svg width="70" height="70" viewBox="0 0 70 70" fill="none" xmlns="http://www.w3.org/2000/svg">
<rect x="1.5" y="1.5" width="67" height="67" rx="33.5" stroke="#4075AB" stroke-width="3"/>
<path d="M24.6671 29.2093C24.6671 28.1187 24.6671 27.5747 24.8698 27.084C25.0724 26.5947 25.4591 26.208 26.2298 25.4373L27.1044 24.5627C27.8751 23.792 28.2618 23.4053 28.7511 23.2027C29.2404 23 29.7871 23 30.8764 23H39.7911C40.8818 23 41.4258 23 41.9165 23.2027C42.4058 23.4053 42.7911 23.792 43.5631 24.5627L44.4378 25.4373C45.2098 26.208 45.5938 26.5947 45.7978 27.084C46.0004 27.5747 46.0005 28.1187 46.0005 29.2093V41.6667C46.0005 44.1813 46.0004 45.4373 45.2191 46.2187C44.4378 47 43.1818 47 40.6671 47H30.0004C27.4858 47 26.2298 47 25.4484 46.2187C24.6671 45.4373 24.6671 44.1813 24.6671 41.6667V29.2093Z" stroke="#4075AB" stroke-width="3"/>
<path d="M24.6671 28.3333H46.0004M31.3337 33.6666C31.3337 34.7275 31.7551 35.7449 32.5053 36.495C33.2554 37.2452 34.2729 37.6666 35.3337 37.6666C36.3946 37.6666 37.412 37.2452 38.1621 36.495C38.9123 35.7449 39.3337 34.7275 39.3337 33.6666" stroke="#4075AB" stroke-width="3" stroke-linecap="round"/>
</svg>
