<svg width="70" height="70" viewBox="0 0 70 70" fill="none" xmlns="http://www.w3.org/2000/svg">
<rect x="1.5" y="1.5" width="67" height="67" rx="33.5" stroke="#4075AB" stroke-width="3"/>
<path d="M26.6672 32.3334H21.3339V40.3334H26.6672V32.3334ZM26.6672 32.3334V29.6667C26.6672 27.545 27.5101 25.5102 29.0103 24.0099C30.5106 22.5096 32.5455 21.6667 34.6672 21.6667C36.7889 21.6667 38.8238 22.5096 40.3241 24.0099C41.8244 25.5102 42.6672 27.545 42.6672 29.6667V40.3334M42.6672 40.3334H48.0005V32.3334H42.6672V40.3334ZM42.6672 40.3334C42.6672 41.7479 42.1053 43.1045 41.1051 44.1047C40.1049 45.1048 38.7484 45.6667 37.3339 45.6667" stroke="#4075AB" stroke-width="3" stroke-linecap="round" stroke-linejoin="round"/>
<path d="M37.3341 47.6667V43.6667H32.0007V47.6667H37.3341Z" stroke="#4075AB" stroke-width="3" stroke-linecap="round" stroke-linejoin="round"/>
</svg>
